<svg width="159" height="181" viewBox="0 0 159 181" fill="none" xmlns="http://www.w3.org/2000/svg">
<g clip-path="url(#clip0_76_195)">
<path d="M102 33.109C102 30.2981 100.012 26.8498 97.5833 25.4446L55.4167 1.05399C52.9877 -0.351329 49.0123 -0.351329 46.5833 1.05399L4.41667 25.4446C1.98733 26.8496 0 30.2987 0 33.109V81.8906C0 84.7011 1.98773 88.1503 4.41653 89.555L46.5832 113.946C49.0122 115.351 52.9875 115.351 55.4165 113.946L97.5832 89.555C98.7979 88.8523 99.9019 87.639 100.702 86.2498C101.503 84.8608 102 83.2959 102 81.8906V33.109Z" fill="#0080CD"/>
<path d="M55.4159 113.946L97.5825 89.5551C98.7972 88.8524 99.9012 87.6391 100.702 86.2498L50.9992 57.5L1.29688 86.2502C2.09721 87.6391 3.20154 88.8527 4.41588 89.5551L46.5825 113.946C49.0115 115.351 52.9869 115.351 55.4159 113.946Z" fill="#00549E"/>
<path d="M51 91.5641C32.2523 91.5641 17 76.283 17 57.5C17 38.7169 32.2523 23.4358 51 23.4358C63.0973 23.4358 74.3797 29.9581 80.4437 40.4572L65.7293 48.9879C62.6943 43.7327 57.05 40.4679 51 40.4679C41.626 40.4679 34 48.1083 34 57.5C34 66.8913 41.626 74.5321 51 74.5321C57.0507 74.5321 62.695 71.2672 65.7303 66.011L80.4447 74.5414C74.3807 85.0415 63.098 91.5641 51 91.5641Z" fill="white"/>
<path d="M84.9993 55.6075H81.2213V51.8228H77.444V55.6075H73.666V59.3923H77.444V63.1775H81.2213V59.3923H84.9993V55.6075Z" fill="white"/>
<path d="M99.1673 55.6075H95.3893V51.8228H91.612V55.6075H87.834V59.3923H91.612V63.1775H95.3893V59.3923H99.1673V55.6075Z" fill="white"/>
</g>
<path fill-rule="evenodd" clip-rule="evenodd" d="M30 126H159V181H30V126Z" fill="#00549E"/>
<path d="M45.291 168.885H53.8932V160.313H45.291V168.885Z" fill="white"/>
<path d="M71.924 169.5C78.6485 169.5 82.4911 166.555 85.4167 162.555L79.0415 157.984C77.1639 160.225 75.3299 161.72 72.1423 161.72C67.8631 161.72 64.8502 158.115 64.8502 153.5V153.412C64.8502 148.929 67.8631 145.236 72.1423 145.236C75.1116 145.236 77.0766 146.687 78.8232 148.841L85.1984 143.874C82.5348 140.137 78.4302 137.5 72.2297 137.5C62.9725 137.5 56.1607 144.533 56.1607 153.5V153.588C56.1607 162.775 63.1909 169.5 71.924 169.5Z" fill="white"/>
<path d="M89.1041 168.885H97.5752V160.093H101.811C109.365 160.093 114.91 156.269 114.91 148.973V148.885C114.91 142.071 109.933 138.115 102.247 138.115H89.1041V168.885ZM97.5752 153.412V145.28H101.592C104.605 145.28 106.483 146.643 106.483 149.28V149.368C106.483 151.83 104.605 153.412 101.636 153.412H97.5752Z" fill="white"/>
<path d="M118.485 168.885H126.956V160.093H131.191C138.745 160.093 144.291 156.269 144.291 148.973V148.885C144.291 142.071 139.313 138.115 131.628 138.115H118.485V168.885ZM126.956 153.412V145.28H130.973C133.986 145.28 135.864 146.643 135.864 149.28V149.368C135.864 151.83 133.986 153.412 131.017 153.412H126.956Z" fill="white"/>
<defs>
<clipPath id="clip0_76_195">
<rect width="102" height="115" fill="white"/>
</clipPath>
</defs>
</svg>
