<svg width="780" height="698" viewBox="0 0 780 698" fill="none" xmlns="http://www.w3.org/2000/svg">
<path fill-rule="evenodd" clip-rule="evenodd" d="M164.002 353.076H338.315V142.582L302.838 107H164.002V353.076Z" fill="url(#paint0_linear_0_2336)"/>
<path fill-rule="evenodd" clip-rule="evenodd" d="M302.889 142.529L320.555 124.78L338.315 142.529V178.117L302.889 142.529Z" fill="black" fill-opacity="0.1"/>
<path fill-rule="evenodd" clip-rule="evenodd" d="M338.313 142.558H302.887V107L338.313 142.558Z" fill="#0080CD"/>
<mask id="mask0_0_2336" style="mask-type:alpha" maskUnits="userSpaceOnUse" x="30" y="-52" width="805" height="710">
<path d="M522.239 -52L483.785 20.0306L396.654 13.1596L450.563 82.0982L415.029 148.518L323.639 7.43376L353.819 -41.6936L522.239 -52Z" fill="#89D3DF"/>
<path fill-rule="evenodd" clip-rule="evenodd" d="M834.866 331.401L834.865 331.401L762.216 481.301L702.831 405.148L739.458 357.282L678.372 373.772L702.831 405.148L762.216 481.301L637.117 491.379L578.462 400.797L346.032 463.781L255.86 656.51L142.565 657.999L142.564 658L30 549.324L74.0522 412.02L294.8 373.428L294.802 373.427L483.788 20.0304L522.242 -52L551.205 25.2982L496.807 141.418L632.128 314.566L632.129 314.567L793.492 286.51L834.865 331.4L834.866 331.401ZM151.691 516.344L229.573 495.273L190.39 568.562L190.389 568.563L151.691 516.344ZM460.665 218.945L396.657 355.677L533.68 331.743H533.923L460.665 218.945Z" fill="#89D3DF"/>
</mask>
<g mask="url(#mask0_0_2336)">
<g filter="url(#filter0_d_0_2336)">
<path d="M739.459 357.28L702.83 405.148L762.215 481.301L834.865 331.4L739.459 357.28Z" fill="#258B74"/>
<path d="M396.653 13.1599L323.639 7.43408L415.029 148.518L450.562 82.0985L396.653 13.1599Z" fill="#63C1A0"/>
<path d="M762.217 481.302L702.831 405.148L678.371 373.771L632.129 314.566L631.885 314.681L632.129 314.566L496.808 141.418L460.666 218.945L533.924 331.744H533.681L578.463 400.797L637.118 491.379L669.975 448.321L637.118 491.379L762.217 481.302Z" fill="#63C1A0"/>
<path d="M151.691 516.344L30 549.324L142.564 658L190.389 568.563L151.691 516.344Z" fill="#331433"/>
<path d="M396.655 355.679L294.8 373.429L74.0522 412.02L30 549.325L151.691 516.345L229.573 495.274L346.032 463.782L578.462 400.798L533.679 331.745L396.655 355.679Z" fill="#E01A59"/>
<path d="M793.491 286.51L632.129 314.567L678.372 373.772L739.46 357.281L834.866 331.401L793.491 286.51Z" fill="#E01A59"/>
<path d="M551.206 25.299L483.789 20.0312L450.567 82.0989L415.033 148.518L294.802 373.428L396.658 355.678L460.667 218.946L496.81 141.418L551.206 25.299Z" fill="#ECB32D"/>
<path d="M229.576 495.272L190.391 568.563L209.618 594.443L190.391 568.563L142.566 658L255.861 656.511L346.034 463.781L229.576 495.272Z" fill="#ECB32D"/>
<path d="M483.786 20.0306L522.241 -52L353.82 -41.6936L396.656 13.1596L483.786 20.0306Z" fill="#89D3DF"/>
<path d="M353.818 -41.6934L323.639 7.43401L396.653 13.1598L353.818 -41.6934Z" fill="#89D3DF"/>
<path d="M551.204 25.2983L522.242 -52L483.787 20.0306L551.204 25.2983Z" fill="#89D3DF"/>
</g>
<path fill-rule="evenodd" clip-rule="evenodd" d="M30 0H780V658H30V0Z" fill="url(#paint1_linear_0_2336)"/>
</g>
<defs>
<filter id="filter0_d_0_2336" x="0" y="-72" width="864.866" height="770" filterUnits="userSpaceOnUse" color-interpolation-filters="sRGB">
<feFlood flood-opacity="0" result="BackgroundImageFix"/>
<feColorMatrix in="SourceAlpha" type="matrix" values="0 0 0 0 0 0 0 0 0 0 0 0 0 0 0 0 0 0 127 0" result="hardAlpha"/>
<feOffset dy="10"/>
<feGaussianBlur stdDeviation="15"/>
<feColorMatrix type="matrix" values="0 0 0 0 0.0941176 0 0 0 0 0.0941176 0 0 0 0 0.0941176 0 0 0 0.2 0"/>
<feBlend mode="normal" in2="BackgroundImageFix" result="effect1_dropShadow_0_2336"/>
<feBlend mode="normal" in="SourceGraphic" in2="effect1_dropShadow_0_2336" result="shape"/>
</filter>
<linearGradient id="paint0_linear_0_2336" x1="178.072" y1="194.939" x2="360.986" y2="309.009" gradientUnits="userSpaceOnUse">
<stop stop-color="#0080CD" stop-opacity="0.46"/>
<stop offset="1" stop-color="#470A3F" stop-opacity="0.6"/>
</linearGradient>
<linearGradient id="paint1_linear_0_2336" x1="701.107" y1="77.5535" x2="-44.2981" y2="452.596" gradientUnits="userSpaceOnUse">
<stop offset="0.145833" stop-color="#240E25" stop-opacity="0.89"/>
<stop offset="1" stop-color="#240E25" stop-opacity="0"/>
</linearGradient>
</defs>
</svg>
