<svg width="113" height="40" viewBox="0 0 113 40" fill="none" xmlns="http://www.w3.org/2000/svg">
<path d="M1.93412 39.5313H3.30859V31.5165H6.21818V30.3384H3.29074V29.5887C3.29074 28.2856 3.82625 27.6252 4.89726 27.6252C5.37922 27.6252 5.73623 27.7144 6.23603 27.8572V26.6613C5.78978 26.5006 5.36137 26.4292 4.71876 26.4292C3.8798 26.4292 3.21934 26.6613 2.73738 27.1432C2.20187 27.6787 1.93412 28.4641 1.93412 29.5173V30.3206H0.666748V31.5165H1.93412V39.5313Z" fill="#C6AAC6"/>
<path d="M11.3717 39.7455C14.1563 39.7455 16.2091 37.5499 16.2091 34.9259V34.8902C16.2091 32.2841 14.192 30.1064 11.4074 30.1064C8.6049 30.1064 6.58782 32.3019 6.58782 34.9259V34.9616C6.58782 37.5678 8.6049 39.7455 11.3717 39.7455ZM11.4074 38.5138C9.46171 38.5138 7.99799 36.9073 7.99799 34.9259V34.8902C7.99799 32.9446 9.37246 31.3202 11.3717 31.3202C13.3174 31.3202 14.7989 32.9445 14.7989 34.9259V34.9616C14.7989 36.8895 13.4066 38.5138 11.4074 38.5138Z" fill="#C6AAC6"/>
<path d="M18.0614 39.5313H19.4359V35.8541C19.4359 33.0695 21.0781 31.6236 23.0952 31.6236H23.2023V30.1421C21.453 30.0885 20.1142 31.1774 19.4359 32.7125V30.3027H18.0614V39.5313Z" fill="#C6AAC6"/>
<path d="M29.6043 39.5313H30.9788V29.2852L39.0471 39.5313H40.1717V27.0361H38.7972V37.0501L30.9252 27.0361H29.6043V39.5313Z" fill="#C6AAC6"/>
<path d="M47.0498 39.7455C49.8345 39.7455 51.8873 37.5499 51.8873 34.9259V34.8902C51.8873 32.2841 49.8702 30.1064 47.0855 30.1064C44.283 30.1064 42.266 32.3019 42.266 34.9259V34.9616C42.266 37.5678 44.283 39.7455 47.0498 39.7455ZM47.0855 38.5138C45.1399 38.5138 43.6761 36.9073 43.6761 34.9259V34.8902C43.6761 32.9446 45.0506 31.3202 47.0498 31.3202C48.9955 31.3202 50.4771 32.9445 50.4771 34.9259V34.9616C50.4771 36.8895 49.0848 38.5138 47.0855 38.5138Z" fill="#C6AAC6"/>
<path d="M57.6131 39.7277C59.3267 39.7277 60.3799 38.7816 61.1474 37.6749V39.5313H62.5219V26.5006H61.1474V32.0699C60.4334 31.0167 59.3267 30.1064 57.6131 30.1064C55.3997 30.1064 53.2041 31.9092 53.2041 34.9081V34.9438C53.2041 37.9783 55.3997 39.7277 57.6131 39.7277ZM57.863 38.496C56.0958 38.496 54.6142 37.1215 54.6142 34.9259V34.8902C54.6142 32.6589 56.078 31.338 57.863 31.338C59.5766 31.338 61.201 32.766 61.201 34.8902V34.9259C61.201 37.0501 59.5766 38.496 57.863 38.496Z" fill="#C6AAC6"/>
<path d="M68.9899 39.7455C70.7571 39.7455 71.8638 39.0672 72.792 38.014L71.9352 37.2465C71.1677 38.0319 70.3108 38.5495 69.0256 38.5495C67.3834 38.5495 65.9732 37.425 65.7769 35.4257H73.0955C73.1133 35.2651 73.1133 35.1758 73.1133 34.9795C73.1133 32.2841 71.5425 30.1064 68.8114 30.1064C66.241 30.1064 64.3846 32.2484 64.3846 34.9081V34.9438C64.3846 37.7998 66.473 39.7455 68.9899 39.7455ZM65.7769 34.4083C65.9732 32.6232 67.1514 31.2666 68.7757 31.2666C70.6322 31.2666 71.5782 32.7482 71.721 34.4083H65.7769Z" fill="#C6AAC6"/>
<path d="M77.7559 39.7098C78.8805 39.7098 79.7908 39.3706 80.5048 38.6745C81.2188 37.9605 81.6473 36.8716 81.6473 35.39V27.0361H80.2192V35.4079C80.2192 37.3893 79.1839 38.4067 77.7737 38.4067C76.4707 38.4067 75.6853 37.782 74.9177 36.6217L73.9002 37.4964C74.6856 38.7816 75.8816 39.7098 77.7559 39.7098Z" fill="#C6AAC6"/>
<path d="M88.6271 39.7098C91.1083 39.7098 92.8933 38.3175 92.8933 36.1755V36.1397C92.8933 34.2298 91.6081 33.2302 88.8234 32.6054C86.0566 32.0342 85.4319 31.3559 85.4319 30.1778V30.1421C85.4319 28.9996 86.4493 28.125 88.0916 28.125C89.3768 28.125 90.537 28.5355 91.6973 29.4816L92.5184 28.3927C91.2332 27.3753 89.9658 26.8576 88.1273 26.8576C85.7532 26.8576 84.0217 28.3213 84.0217 30.267V30.3027C84.0217 32.3555 85.3426 33.2837 88.2165 33.9085C90.8405 34.4797 91.4653 35.1223 91.4653 36.2826V36.3183C91.4653 37.5499 90.3764 38.4424 88.6806 38.4424C86.9491 38.4424 85.6996 37.8712 84.3965 36.6753L83.5219 37.7106C85.0213 39.0672 86.6278 39.7098 88.6271 39.7098Z" fill="#C6AAC6"/>
<path d="M0.666748 0.603695H4.40064V17.6831H0.666748V0.540202V0.603695ZM8.60518 0.603695H16.3554C18.489 0.603695 20.1206 1.17512 21.2816 2.31799C21.7699 2.84329 22.1492 3.46229 22.3971 4.13841C22.645 4.81454 22.7565 5.53407 22.7249 6.25451V6.28626C22.7249 7.68309 22.4112 8.82595 21.7209 9.6831C21.0437 10.5496 20.1421 11.209 19.1165 11.5879L23.227 17.7149H18.8969L15.2571 12.2228H12.3704V17.7149H8.66794V0.540202L8.60518 0.603695ZM16.1357 8.88944C17.0457 8.88944 17.7359 8.69897 18.238 8.25452C18.4821 8.03173 18.6737 7.75633 18.7986 7.44864C18.9235 7.14095 18.9785 6.80882 18.9597 6.47673V6.44499C18.9597 5.61959 18.7086 5.01641 18.2066 4.60371C17.6732 4.19101 16.9515 3.96879 16.0416 3.96879H12.3391V8.88944H16.1357ZM34.3345 18.0006C31.9311 18.0281 29.612 17.1055 27.8708 15.4292C27.0522 14.6222 26.4068 13.6532 25.9749 12.5826C25.543 11.5121 25.3339 10.3629 25.3606 9.2069V9.11167C25.3393 7.3591 25.8436 5.64117 26.8071 4.18458C27.7707 2.728 29.148 1.6012 30.7575 0.952902C31.8557 0.508456 33.048 0.254486 34.3659 0.254486C36.7628 0.243753 39.0698 1.17739 40.7982 2.85767C41.6168 3.6646 42.2622 4.6336 42.6941 5.70418C43.126 6.77475 43.3351 7.92392 43.3084 9.07992V9.11167C43.3297 10.8642 42.8253 12.5822 41.8618 14.0388C40.8983 15.4953 39.521 16.6221 37.9115 17.2704C36.7784 17.7499 35.5627 17.9981 34.3345 18.0006ZM34.3345 14.5085C35.0192 14.518 35.6984 14.3848 36.33 14.1172C36.9616 13.8495 37.532 13.4533 38.0056 12.953C38.9342 11.934 39.4398 10.5927 39.4176 9.2069V9.11167C39.4477 7.69966 38.9295 6.33197 37.9742 5.30213C37.501 4.79909 36.9314 4.3989 36.3002 4.12599C35.6691 3.85308 34.9895 3.71318 34.3031 3.71482C33.6217 3.71564 32.9476 3.85679 32.3219 4.12968C31.6961 4.40257 31.1318 4.80148 30.6634 5.30213C29.7157 6.32405 29.1981 7.67883 29.22 9.07992V9.11167C29.2185 10.5185 29.7327 11.8759 30.6634 12.9212C31.134 13.3974 31.6674 13.7784 32.295 14.0641C32.9225 14.3815 33.6128 14.5085 34.3659 14.5085H34.3345ZM46.6344 0.603695H50.0858L57.9929 11.1434V0.603695H61.6327V17.6831H58.4949L50.2741 6.7942V17.6831H46.603V0.540202L46.6344 0.603695Z" fill="#C6AAC6"/>
<path d="M65.4926 0.603882H71.8308C72.7721 0.603882 73.6507 0.730867 74.4351 0.984836C75.2196 1.23881 75.8785 1.58801 76.4433 2.03246C76.9966 2.53579 77.437 3.15323 77.7347 3.84321C78.0323 4.5332 78.1805 5.27971 78.169 6.03247V6.06422C78.169 7.01661 77.9808 7.81026 77.6356 8.50868C77.2905 9.20709 76.7884 9.77852 76.1923 10.2547C75.5627 10.7344 74.8495 11.0898 74.09 11.3023C73.2742 11.5563 72.427 11.6515 71.5171 11.6515H67.438V17.6833H65.4926V0.603882ZM71.6112 9.93725C72.3015 9.93725 72.929 9.84202 73.4938 9.65154C74.0287 9.49445 74.5292 9.23589 74.9685 8.88963C75.3693 8.56119 75.6907 8.14453 75.9082 7.6714C76.1257 7.19828 76.2336 6.68116 76.2236 6.15946V6.09597C76.2236 4.88961 75.8471 3.93723 74.9999 3.33405C74.1527 2.73087 73.0545 2.38167 71.7053 2.38167H67.4066V9.93725H71.6112ZM81.6519 0.603882H87.5194C88.8373 0.603882 90.0296 0.794359 91.1592 1.2388C92.2574 1.68325 93.1987 2.28643 93.9831 3.04834C94.7982 3.81789 95.4431 4.75311 95.8757 5.79263C96.3083 6.83216 96.5188 7.95249 96.4933 9.08011V9.1436C96.51 10.2966 96.2965 11.4411 95.8658 12.5087C95.4352 13.5427 94.7937 14.4731 93.9831 15.2389C93.1654 16.02 92.2066 16.6343 91.1592 17.0484C90.0296 17.4928 88.8373 17.6833 87.5194 17.6833H81.6519V0.603882ZM87.5194 15.9055C88.5863 15.9055 89.5276 15.7468 90.4061 15.3976C91.2196 15.0927 91.961 14.6188 92.5824 14.0064C93.2039 13.394 93.6917 12.6567 94.0145 11.842C94.3486 11.0048 94.5191 10.11 94.5165 9.20709V9.11185C94.5165 8.15947 94.3597 7.30232 94.0145 6.47692C93.6907 5.65546 93.2032 4.91023 92.5824 4.28761C91.9616 3.66499 91.2208 3.17831 90.4061 2.85786C89.4844 2.50513 88.5048 2.33276 87.5194 2.34992H83.5345V15.8738H87.5194V15.9055ZM100.541 0.603882H112.684V2.38167H102.455V8.47693H111.617V10.223H102.424V17.6833H100.541V0.540389V0.603882Z" fill="#C6AAC6"/>
</svg>
