<svg width="113" height="44" viewBox="0 0 113 44" fill="none" xmlns="http://www.w3.org/2000/svg">
<path d="M1.60063 40.1837H2.9751V32.1689H5.88471V30.9908H2.95725V30.2411C2.95725 28.938 3.49276 28.2775 4.56379 28.2775C5.04575 28.2775 5.40275 28.3668 5.90256 28.5096V27.3136C5.4563 27.1529 5.0279 27.0815 4.38528 27.0815C3.54632 27.0815 2.88585 27.3136 2.40389 27.7956C1.86838 28.3311 1.60063 29.1165 1.60063 30.1697V30.9729H0.333252V32.1689H1.60063V40.1837Z" fill="#C6AAC6"/>
<path d="M11.0382 40.3979C13.8229 40.3979 15.8757 38.2023 15.8757 35.5783V35.5426C15.8757 32.9365 13.8586 30.7587 11.0739 30.7587C8.27144 30.7587 6.25435 32.9543 6.25435 35.5783V35.614C6.25435 38.2202 8.27144 40.3979 11.0382 40.3979ZM11.0739 39.1662C9.12826 39.1662 7.66453 37.5597 7.66453 35.5783V35.5426C7.66453 33.5969 9.03901 31.9725 11.0382 31.9725C12.9839 31.9725 14.4655 33.5969 14.4655 35.5783V35.614C14.4655 37.5419 13.0732 39.1662 11.0739 39.1662Z" fill="#C6AAC6"/>
<path d="M17.728 40.1837H19.1025V36.5065C19.1025 33.7219 20.7447 32.276 22.7618 32.276H22.8689V30.7944C21.1196 30.7409 19.7808 31.8297 19.1025 33.3649V30.9551H17.728V40.1837Z" fill="#C6AAC6"/>
<path d="M29.271 40.1837H30.6811V35.7747H33.7157C36.3754 35.7747 38.6245 34.3823 38.6245 31.6869V31.6512C38.6245 29.1879 36.7681 27.6885 33.9477 27.6885H29.271V40.1837ZM30.6811 34.4894V28.9915H33.8406C35.8577 28.9915 37.1965 29.9197 37.1965 31.7048V31.7405C37.1965 33.3827 35.8399 34.4894 33.7692 34.4894H30.6811Z" fill="#C6AAC6"/>
<path d="M44.4441 38.6486L41.0882 30.9551H39.571L43.7658 40.148C43.2124 41.4511 42.7126 41.8795 41.8737 41.8795C41.2846 41.8795 40.874 41.7724 40.4278 41.5403L39.9637 42.6292C40.5884 42.9327 41.1596 43.0933 41.9272 43.0933C43.3017 43.0933 44.2121 42.3971 44.9975 40.4872L48.871 30.9551H47.4073L44.4441 38.6486Z" fill="#C6AAC6"/>
<path d="M53.4961 40.3444C54.1566 40.3444 54.6743 40.2194 55.1562 39.9517V38.7735C54.6743 39.0056 54.2994 39.0948 53.8174 39.0948C52.8892 39.0948 52.2645 38.7021 52.2645 37.5597V32.1689H55.1919V30.9551H52.2645V28.1704H50.89V30.9551H49.6048V32.1689H50.89V37.7382C50.89 39.6125 51.9967 40.3444 53.4961 40.3444Z" fill="#C6AAC6"/>
<path d="M56.9874 40.1837H58.3618V34.9C58.3618 33.1685 59.54 32.0082 61.1286 32.0082C62.7709 32.0082 63.6812 33.0793 63.6812 34.7929V40.1837H65.0557V34.4537C65.0557 32.2581 63.7348 30.7587 61.5213 30.7587C59.9327 30.7587 58.9866 31.562 58.3618 32.5616V27.1529H56.9874V40.1837Z" fill="#C6AAC6"/>
<path d="M71.5621 40.3979C74.3468 40.3979 76.3996 38.2023 76.3996 35.5783V35.5426C76.3996 32.9365 74.3825 30.7587 71.5978 30.7587C68.7953 30.7587 66.7782 32.9543 66.7782 35.5783V35.614C66.7782 38.2202 68.7953 40.3979 71.5621 40.3979ZM71.5978 39.1662C69.6521 39.1662 68.1884 37.5597 68.1884 35.5783V35.5426C68.1884 33.5969 69.5629 31.9725 71.5621 31.9725C73.5078 31.9725 74.9894 33.5969 74.9894 35.5783V35.614C74.9894 37.5419 73.597 39.1662 71.5978 39.1662Z" fill="#C6AAC6"/>
<path d="M78.2519 40.1837H79.6264V34.9C79.6264 33.1685 80.8045 32.0082 82.3932 32.0082C84.0354 32.0082 84.9458 33.0793 84.9458 34.7929V40.1837H86.3202V34.4537C86.3202 32.2581 84.9993 30.7587 82.7859 30.7587C81.1972 30.7587 80.2511 31.562 79.6264 32.5616V30.9551H78.2519V40.1837Z" fill="#C6AAC6"/>
<path d="M0.333252 1.25604H4.06714V18.3355H0.333252V1.19255V1.25604ZM8.27169 1.25604H16.0219C18.1555 1.25604 19.7871 1.82747 20.9481 2.97033C21.4364 3.49564 21.8157 4.11463 22.0636 4.79076C22.3115 5.46688 22.423 6.18642 22.3914 6.90686V6.9386C22.3914 8.33543 22.0777 9.47829 21.3874 10.3354C20.7102 11.202 19.8086 11.8614 18.7831 12.2402L22.8935 18.3672H18.5634L14.9237 12.8751H12.037V18.3672H8.33444V1.19255L8.27169 1.25604ZM15.8022 9.54179C16.7122 9.54179 17.4025 9.35131 17.9045 8.90686C18.1486 8.68407 18.3402 8.40868 18.4651 8.10099C18.59 7.7933 18.645 7.46116 18.6262 7.12908V7.09733C18.6262 6.27193 18.3751 5.66875 17.8731 5.25605C17.3397 4.84335 16.618 4.62113 15.7081 4.62113H12.0056V9.54179H15.8022ZM34.001 18.6529C31.5976 18.6805 29.2785 17.7579 27.5373 16.0815C26.7187 15.2746 26.0733 14.3056 25.6414 13.235C25.2095 12.1644 25.0004 11.0153 25.0271 9.85925V9.76401C25.0058 8.01144 25.5101 6.29352 26.4737 4.83693C27.4372 3.38034 28.8145 2.25355 30.424 1.60525C31.5222 1.1608 32.7145 0.90683 34.0324 0.90683C36.4293 0.896097 38.7363 1.82973 40.4647 3.51002C41.2833 4.31694 41.9287 5.28594 42.3606 6.35652C42.7925 7.4271 43.0016 8.57626 42.9749 9.73226V9.76401C42.9962 11.5166 42.4918 13.2345 41.5283 14.6911C40.5648 16.1477 39.1875 17.2745 37.578 17.9228C36.4449 18.4023 35.2292 18.6504 34.001 18.6529ZM34.001 15.1609C34.6857 15.1703 35.3649 15.0371 35.9965 14.7695C36.6281 14.5019 37.1985 14.1056 37.6721 13.6053C38.6008 12.5864 39.1063 11.245 39.0841 9.85925V9.76401C39.1142 8.352 38.596 6.98432 37.6408 5.95447C37.1675 5.45143 36.5979 5.05124 35.9667 4.77833C35.3356 4.50542 34.656 4.36552 33.9696 4.36716C33.2882 4.36798 32.6141 4.50913 31.9884 4.78202C31.3626 5.05491 30.7983 5.45383 30.3299 5.95447C29.3822 6.9764 28.8646 8.33117 28.8865 9.73226V9.76401C28.885 11.1708 29.3992 12.5282 30.3299 13.5736C30.8005 14.0497 31.3339 14.4307 31.9615 14.7164C32.589 15.0339 33.2793 15.1609 34.0324 15.1609H34.001ZM46.3009 1.25604H49.7524L57.6594 11.7958V1.25604H61.2992V18.3355H58.1614L49.9406 7.44654V18.3355H46.2695V1.19255L46.3009 1.25604Z" fill="#C6AAC6"/>
<path d="M65.1591 1.25623H71.4973C72.4386 1.25623 73.3172 1.38321 74.1016 1.63718C74.8861 1.89115 75.545 2.24036 76.1098 2.6848C76.6631 3.18813 77.1035 3.80557 77.4012 4.49556C77.6989 5.18554 77.847 5.93205 77.8355 6.68482V6.71657C77.8355 7.66895 77.6473 8.4626 77.3021 9.16102C76.957 9.85944 76.4549 10.4309 75.8588 10.9071C75.2292 11.3867 74.516 11.7421 73.7565 11.9547C72.9407 12.2087 72.0935 12.3039 71.1836 12.3039H67.1045V18.3357H65.1591V1.25623ZM71.2777 10.5896C71.968 10.5896 72.5955 10.4944 73.1603 10.3039C73.6952 10.1468 74.1957 9.88823 74.635 9.54197C75.0358 9.21353 75.3572 8.79687 75.5747 8.32375C75.7922 7.85062 75.9001 7.33351 75.8901 6.8118V6.74831C75.8901 5.54196 75.5136 4.58957 74.6664 3.98639C73.8192 3.38322 72.721 3.03401 71.3718 3.03401H67.0731V10.5896H71.2777ZM81.3184 1.25623H87.1859C88.5038 1.25623 89.6961 1.4467 90.8257 1.89115C91.9239 2.33559 92.8652 2.93877 93.6496 3.70068C94.4647 4.47023 95.1096 5.40545 95.5422 6.44498C95.9749 7.4845 96.1853 8.60483 96.1598 9.73245V9.79594C96.1765 10.9489 95.963 12.0935 95.5323 13.161C95.1017 14.195 94.4602 15.1254 93.6496 15.8912C92.8319 16.6723 91.8731 17.2867 90.8257 17.7007C89.6961 18.1452 88.5038 18.3357 87.1859 18.3357H81.3184V1.25623ZM87.1859 16.5579C88.2528 16.5579 89.1941 16.3991 90.0726 16.0499C90.8861 15.745 91.6275 15.2711 92.2489 14.6587C92.8704 14.0463 93.3582 13.3091 93.681 12.4944C94.0151 11.6571 94.1856 10.7623 94.183 9.85944V9.7642C94.183 8.81181 94.0262 7.95467 93.681 7.12927C93.3572 6.30781 92.8697 5.56257 92.2489 4.93995C91.6281 4.31734 90.8873 3.83065 90.0726 3.5102C89.1509 3.15748 88.1713 2.98511 87.1859 3.00226H83.201V16.5261H87.1859V16.5579ZM100.207 1.25623H112.35V3.03401H102.121V9.12927H111.284V10.8753H102.09V18.3357H100.207V1.19273V1.25623Z" fill="#C6AAC6"/>
</svg>
